<svg width="200" height="200" viewBox="0 0 200 200" xmlns="http://www.w3.org/2000/svg">
  <!-- Background -->
  <circle cx="100" cy="100" r="100" fill="#e7c3a6"/>
  
  <!-- Hair -->
  <path d="M160 100c0 33.137-26.863 60-60 60s-60-26.863-60-60c0-33.137 26.863-65 60-65s60 31.863 60 65z" fill="#5D4037"/>
  
  <!-- Face -->
  <circle cx="100" cy="95" r="40" fill="#FBE2B4"/>
  
  <!-- Eyes -->
  <g>
    <ellipse cx="85" cy="90" rx="5" ry="6" fill="#4E342E"/>
    <ellipse cx="115" cy="90" rx="5" ry="6" fill="#4E342E"/>
    <path d="M85 84c2.5 0 4 1.5 4 3m26-3c-2.5 0-4 1.5-4 3" stroke="#4E342E" stroke-width="1.5" fill="none"/>
  </g>
  
  <!-- Lips -->
  <path d="M95 110c5 3 10 3 15 0" stroke="#C2797F" stroke-width="2" stroke-linecap="round" fill="none"/>

  <!-- Smile -->
  <path d="M 95 110 C 100 114, 105 114, 110 110" stroke="#FF9AA2" stroke-width="1.5" fill="none"/>
  
  <!-- Blush -->
  <ellipse cx="80" cy="100" rx="5" ry="3" fill="#FFCDD2" opacity="0.6"/>
  <ellipse cx="120" cy="100" rx="5" ry="3" fill="#FFCDD2" opacity="0.6"/>
  
  <!-- Headscarf -->
  <path d="M160 90c-10-50-40-50-60-50s-50 0-60 50c-10 50 10 70 60 70s70-20 60-70z" fill="#A1887F" opacity="0.8"/>
  <path d="M40 90c0 0 20 10 60 10s60-10 60-10" stroke="#8D6E63" stroke-width="3" fill="none"/>
  
  <!-- Headscarf pattern -->
  <path d="M60 70c0 0 20 5 40 5s40-5 40-5" stroke="#8D6E63" stroke-width="1" fill="none" opacity="0.6"/>
  <path d="M65 60c0 0 15 3 35 3s35-3 35-3" stroke="#8D6E63" stroke-width="1" fill="none" opacity="0.6"/>
  
  <!-- Earrings -->
  <circle cx="68" cy="95" r="3" fill="gold"/>
  <circle cx="132" cy="95" r="3" fill="gold"/>
</svg>