<svg width="800" height="800" viewBox="0 0 800 800" xmlns="http://www.w3.org/2000/svg">
  <defs>
    <linearGradient id="bgGradient" x1="0%" y1="0%" x2="100%" y2="100%">
      <stop offset="0%" stop-color="#e2d1c3" />
      <stop offset="100%" stop-color="#ffecd2" />
    </linearGradient>
    <pattern id="smallGrid" width="20" height="20" patternUnits="userSpaceOnUse">
      <path d="M 20 0 L 0 0 0 20" fill="none" stroke="rgba(255, 255, 255, 0.1)" stroke-width="0.5"/>
    </pattern>
    <pattern id="grid" width="100" height="100" patternUnits="userSpaceOnUse">
      <rect width="100" height="100" fill="url(#smallGrid)"/>
      <path d="M 100 0 L 0 0 0 100" fill="none" stroke="rgba(255, 255, 255, 0.2)" stroke-width="1"/>
    </pattern>
    <filter id="glow" x="-50%" y="-50%" width="200%" height="200%">
      <feGaussianBlur stdDeviation="5" result="blur" />
      <feComposite in="SourceGraphic" in2="blur" operator="over" />
    </filter>
  </defs>
  
  <rect width="800" height="800" fill="url(#bgGradient)" />
  <rect width="800" height="800" fill="url(#grid)" opacity="0.4" />
  
  <!-- Decorative elements -->
  <circle cx="400" cy="400" r="150" fill="none" stroke="rgba(255, 255, 255, 0.3)" stroke-width="2" filter="url(#glow)"/>
  <circle cx="400" cy="400" r="250" fill="none" stroke="rgba(255, 255, 255, 0.2)" stroke-width="2"/>
  <circle cx="400" cy="400" r="350" fill="none" stroke="rgba(255, 255, 255, 0.15)" stroke-width="1.5"/>
  
  <!-- Arabic-inspired decorative patterns -->
  <path d="M 400 50 C 500 150, 500 250, 400 350 C 300 250, 300 150, 400 50" fill="none" stroke="rgba(255, 255, 255, 0.2)" stroke-width="1" />
  <path d="M 400 450 C 500 550, 500 650, 400 750 C 300 650, 300 550, 400 450" fill="none" stroke="rgba(255, 255, 255, 0.2)" stroke-width="1" />
  
  <path d="M 250 400 C 350 500, 450 500, 550 400 C 450 300, 350 300, 250 400" fill="none" stroke="rgba(255, 255, 255, 0.2)" stroke-width="1" />
  <path d="M 50 400 C 150 500, 250 500, 350 400 C 250 300, 150 300, 50 400" fill="none" stroke="rgba(255, 255, 255, 0.2)" stroke-width="1" />
  <path d="M 450 400 C 550 500, 650 500, 750 400 C 650 300, 550 300, 450 400" fill="none" stroke="rgba(255, 255, 255, 0.2)" stroke-width="1" />
  
  <!-- Crosshair guides -->
  <path d="M 400 50 L 400 750" stroke="rgba(255, 255, 255, 0.1)" stroke-width="1" stroke-dasharray="5,5"/>
  <path d="M 50 400 L 750 400" stroke="rgba(255, 255, 255, 0.1)" stroke-width="1" stroke-dasharray="5,5"/>
</svg>