<svg width="100" height="100" viewBox="0 0 100 100" xmlns="http://www.w3.org/2000/svg">
  <!-- Background Circle -->
  <circle cx="50" cy="50" r="48" fill="#8560A8" />
  
  <!-- Decorative Elements (Stylized Arabic motif) -->
  <path d="M50 5C25.15 5 5 25.15 5 50s20.15 45 45 45 45-20.15 45-45S74.85 5 50 5zm0 85c-22.08 0-40-17.92-40-40S27.92 10 50 10s40 17.92 40 40-17.92 40-40 40z" 
        fill="#7a4a99" opacity="0.6" />
  
  <!-- Stylized Letter Yaa' (ي) in Arabic -->
  <path d="M36 40c0-7.73 6.27-14 14-14s14 6.27 14 14c0 5.46-3.13 10.19-7.68 12.51 2.99 1.14 6.13 1.77 9.38 1.77 3.46 0 6.8-0.65 9.86-1.97-1.13 2.49-2.63 4.76-4.45 6.77-2.8 0.55-5.7 0.84-8.66 0.84-4.89 0-9.56-0.83-13.91-2.36C40.65 66.18 36 72.76 36 80.5v0.5h28V80c0-2.21 1.79-4 4-4s4 1.79 4 4v1h3V65c0-3.87-3.13-7-7-7h-0.5C74.68 53.61 80 43.49 80 32c0-16.57-13.43-30-30-30S20 15.43 20 32c0 11.72 5.58 21.99 13.46 26.51C27.72 62.15 24 68.7 24 76v5h8v-0.5c0-11.03 8.97-20 20-20 2.21 0 4 1.79 4 4s-1.79 4-4 4-4 1.79-4 4V76h12v-4c0-2.21-1.79-4-4-4s-4-1.79-4-4 1.79-4 4-4c5.32 0 10.13-2.17 13.61-5.68-3.97 1.33-8.22 2.05-12.63 2.05-4.21 0-8.28-0.68-12.09-1.92C40.78 50.81 36 45.96 36 40z" 
        fill="#ffffff" />
  
  <!-- Inner Details -->
  <circle cx="50" cy="50" r="20" fill="#5b3b7a" />
  <circle cx="50" cy="50" r="15" fill="#ffffff" />
</svg>
